<svg xmlns="http://www.w3.org/2000/svg" viewBox="0 0 100.04 85.14"><defs><style>.cls-1{fill:#009c7b;}</style></defs><g id="Capa_2" data-name="Capa 2"><g id="Capa_1-2" data-name="Capa 1"><path class="cls-1" d="M94.37,84.58a2.94,2.94,0,0,1-.59.12c-6,.62-15.27,1.7-17-5.89-7.7-22.54.73-42.26,1.78-64.92a3,3,0,0,0-.88-2.28C75.84,9.9,73,12,72.45,15c-4.39,14.83-7.69,34.5-10.65,45.91-1.68,6.46-2.91,18.9-15.25,21.91l-.22,0c-9,2-17.15-4.33-20.09-12.66a2.49,2.49,0,0,1-.12-.31l-1-2.87,0,0c0-.17-.11-.32-.14-.42s-.06-.15-.06-.15C22.52,59.28,21,39.29,15.42,41.7,9.3,44.37,19.64,69,20.76,74.89c0,.12.06.25.09.37,2.9,9.17,3.38,10.2-6.93,9.53C1.05,84-.74,81.37.22,68.51,1.6,50,6.23,31.88,11.32,14.12,13.17,8,16.84,1,23.88,1.05a7.64,7.64,0,0,1,7.57,5.73c3.54,11.43,5.31,22.93,7.89,34.5C41.61,50.55,42.71,56.82,46,66c1.26,4.3,6.55,4.34,6.15-.61-.69-19.23-6.71-37.59,3.69-55.16l.23-.34C69.84-8.2,100.17-.2,99.62,23.68a1.43,1.43,0,0,0,0,.29c.82,8.62-2.32,16.1-3.07,23.33-1.18,11.35,2.5,19.44,3.44,30.07C100.38,81.67,98.26,83.35,94.37,84.58Z"/></g></g></svg>